<svg xmlns="http://www.w3.org/2000/svg" width="1034" height="934" viewBox="0 0 1034 934">
  <defs>
    <linearGradient id="wood" x1="0" y1="0" x2="1" y2="1">
      <stop offset="0" stop-color="#3f3680"/><stop offset="0.5" stop-color="#262050"/><stop offset="1" stop-color="#181334"/>
    </linearGradient>
    <radialGradient id="medal" cx="0.4" cy="0.35" r="0.7">
      <stop offset="0" stop-color="#2f2a63"/><stop offset="1" stop-color="#1b1740"/>
    </radialGradient>
  </defs>
  <path fill-rule="evenodd" fill="url(#wood)" d="M26 0H1008A26 26 0 0 1 1034 26V908A26 26 0 0 1 1008 934H26A26 26 0 0 1 0 908V26A26 26 0 0 1 26 0Z M29 17H1005A12 12 0 0 1 1017 29V905A12 12 0 0 1 1005 917H29A12 12 0 0 1 17 905V29A12 12 0 0 1 29 17Z"/>
  <rect x="5.5" y="5.5" width="1023" height="923" rx="21" fill="none" stroke="#e2bf82" stroke-opacity="0.55" stroke-width="2"/>
  <rect x="16" y="16" width="1002" height="902" rx="13" fill="none" stroke="#e2bf82" stroke-opacity="0.8" stroke-width="2"/>
  <g fill="#ffc873">
    <path d="M8 8l6 6-6 6-6-6z" transform="translate(0 0)"/>
    <path d="M1026 8l6 6-6 6-6-6z" transform="translate(0 0)"/>
    <path d="M8 914l6 6-6 6-6-6z"/>
    <path d="M1026 914l6 6-6 6-6-6z"/>
  </g>
  <g transform="translate(517 18)">
    <circle r="30" fill="url(#medal)" stroke="#e2bf82" stroke-width="2.5"/>
    <path d="M6 -19a19 19 0 1 0 12 32a15.5 15.5 0 1 1 -12 -32z" fill="#ffc873"/>
    <circle cx="11" cy="-12" r="2" fill="#ffc873" opacity="0.8"/>
  </g>
</svg>
